<?xml version="1.0" encoding="UTF-8" standalone="no"?>
<!DOCTYPE svg PUBLIC "-//W3C//DTD SVG 1.1//EN"
 "http://www.w3.org/Graphics/SVG/1.1/DTD/svg11.dtd">
<!-- Generated by graphviz version 9.0.0 (0)
 -->
<!-- Title: snakemake_dag Pages: 1 -->
<svg width="306pt" height="188pt"
 viewBox="0.00 0.00 306.38 188.00" xmlns="http://www.w3.org/2000/svg" xmlns:xlink="http://www.w3.org/1999/xlink">
<g id="graph0" class="graph" transform="scale(1 1) rotate(0) translate(4 184)">
<title>snakemake_dag</title>
<polygon fill="white" stroke="none" points="-4,4 -4,-184 302.38,-184 302.38,4 -4,4"/>
<!-- 0 -->
<g id="node1" class="node">
<title>0</title>
<path fill="none" stroke="#d85656" stroke-width="2" d="M225.88,-36C225.88,-36 160.38,-36 160.38,-36 154.38,-36 148.38,-30 148.38,-24 148.38,-24 148.38,-12 148.38,-12 148.38,-6 154.38,0 160.38,0 160.38,0 225.88,0 225.88,0 231.88,0 237.88,-6 237.88,-12 237.88,-12 237.88,-24 237.88,-24 237.88,-30 231.88,-36 225.88,-36"/>
<text text-anchor="middle" x="193.12" y="-14.12" font-family="sans" font-size="10.00">FINAL_TARGET</text>
</g>
<!-- 1 -->
<g id="node2" class="node">
<title>1</title>
<path fill="none" stroke="#d6d856" stroke-width="2" d="M181.25,-108C181.25,-108 115,-108 115,-108 109,-108 103,-102 103,-96 103,-96 103,-84 103,-84 103,-78 109,-72 115,-72 115,-72 181.25,-72 181.25,-72 187.25,-72 193.25,-78 193.25,-84 193.25,-84 193.25,-96 193.25,-96 193.25,-102 187.25,-108 181.25,-108"/>
<text text-anchor="middle" x="148.12" y="-86.12" font-family="sans" font-size="10.00">render_bs4_book</text>
</g>
<!-- 1&#45;&gt;0 -->
<g id="edge1" class="edge">
<title>1&#45;&gt;0</title>
<path fill="none" stroke="grey" stroke-width="2" d="M159.48,-71.34C164.08,-64.18 169.51,-55.73 174.66,-47.73"/>
<polygon fill="grey" stroke="grey" stroke-width="2" points="177.52,-49.75 179.98,-39.45 171.63,-45.97 177.52,-49.75"/>
</g>
<!-- 2 -->
<g id="node3" class="node">
<title>2</title>
<path fill="none" stroke="#56d89a" stroke-width="2" d="M84.25,-180C84.25,-180 12,-180 12,-180 6,-180 0,-174 0,-168 0,-168 0,-156 0,-156 0,-150 6,-144 12,-144 12,-144 84.25,-144 84.25,-144 90.25,-144 96.25,-150 96.25,-156 96.25,-156 96.25,-168 96.25,-168 96.25,-174 90.25,-180 84.25,-180"/>
<text text-anchor="middle" x="48.12" y="-158.12" font-family="sans" font-size="10.00">snakemake_report</text>
</g>
<!-- 2&#45;&gt;1 -->
<g id="edge5" class="edge">
<title>2&#45;&gt;1</title>
<path fill="none" stroke="grey" stroke-width="2" d="M73.62,-143.15C85.37,-134.93 99.53,-125.02 112.33,-116.06"/>
<polygon fill="grey" stroke="grey" stroke-width="2" points="114.01,-119.15 120.2,-110.55 110,-113.42 114.01,-119.15"/>
</g>
<!-- 3 -->
<g id="node4" class="node">
<title>3</title>
<path fill="none" stroke="#569ad8" stroke-width="2" d="M169.62,-180C169.62,-180 126.62,-180 126.62,-180 120.62,-180 114.62,-174 114.62,-168 114.62,-168 114.62,-156 114.62,-156 114.62,-150 120.62,-144 126.62,-144 126.62,-144 169.62,-144 169.62,-144 175.62,-144 181.62,-150 181.62,-156 181.62,-156 181.62,-168 181.62,-168 181.62,-174 175.62,-180 169.62,-180"/>
<text text-anchor="middle" x="148.12" y="-158.12" font-family="sans" font-size="10.00">project_tree</text>
</g>
<!-- 3&#45;&gt;1 -->
<g id="edge3" class="edge">
<title>3&#45;&gt;1</title>
<path fill="none" stroke="grey" stroke-width="2" d="M148.12,-143.34C148.12,-136.75 148.12,-129.08 148.12,-121.67"/>
<polygon fill="grey" stroke="grey" stroke-width="2" points="151.63,-121.93 148.13,-111.93 144.63,-121.93 151.63,-121.93"/>
</g>
<!-- 4 -->
<g id="node5" class="node">
<title>4</title>
<path fill="none" stroke="#59d856" stroke-width="2" d="M286.38,-180C286.38,-180 211.88,-180 211.88,-180 205.88,-180 199.88,-174 199.88,-168 199.88,-168 199.88,-156 199.88,-156 199.88,-150 205.88,-144 211.88,-144 211.88,-144 286.38,-144 286.38,-144 292.38,-144 298.38,-150 298.38,-156 298.38,-156 298.38,-168 298.38,-168 298.38,-174 292.38,-180 286.38,-180"/>
<text text-anchor="middle" x="249.12" y="-158.12" font-family="sans" font-size="10.00">generate_rulegraph</text>
</g>
<!-- 4&#45;&gt;1 -->
<g id="edge4" class="edge">
<title>4&#45;&gt;1</title>
<path fill="none" stroke="grey" stroke-width="2" d="M223.38,-143.15C211.51,-134.93 197.21,-125.02 184.28,-116.06"/>
<polygon fill="grey" stroke="grey" stroke-width="2" points="186.53,-113.36 176.31,-110.54 182.54,-119.11 186.53,-113.36"/>
</g>
<!-- 5 -->
<g id="node6" class="node">
<title>5</title>
<path fill="none" stroke="#97d856" stroke-width="2" d="M253.12,-108C253.12,-108 223.12,-108 223.12,-108 217.12,-108 211.12,-102 211.12,-96 211.12,-96 211.12,-84 211.12,-84 211.12,-78 217.12,-72 223.12,-72 223.12,-72 253.12,-72 253.12,-72 259.12,-72 265.12,-78 265.12,-84 265.12,-84 265.12,-96 265.12,-96 265.12,-102 259.12,-108 253.12,-108"/>
<text text-anchor="middle" x="238.12" y="-86.12" font-family="sans" font-size="10.00">init_renv</text>
</g>
<!-- 5&#45;&gt;0 -->
<g id="edge2" class="edge">
<title>5&#45;&gt;0</title>
<path fill="none" stroke="grey" stroke-width="2" d="M226.77,-71.34C222.17,-64.18 216.74,-55.73 211.59,-47.73"/>
<polygon fill="grey" stroke="grey" stroke-width="2" points="214.62,-45.97 206.27,-39.45 208.73,-49.75 214.62,-45.97"/>
</g>
</g>
</svg>
